<svg width="58" height="51" viewBox="0 0 58 51" fill="none" xmlns="http://www.w3.org/2000/svg">
<path d="M28.1266 40.1969L26.6363 30.6499L18.3583 24.6073L28.8018 13.1974L34.693 19.6125L41.8533 18.4948M32.4576 5.29193C32.5564 5.92494 32.9026 6.49277 33.4201 6.8705C33.9376 7.24823 34.5839 7.40493 35.2169 7.30612C35.8499 7.2073 36.4178 6.86107 36.7955 6.3436C37.1732 5.82612 37.3299 5.17979 37.2311 4.54678C37.1323 3.91377 36.7861 3.34594 36.2686 2.9682C35.7511 2.59047 35.1048 2.43377 34.4718 2.53259C33.8388 2.6314 33.2709 2.97763 32.8932 3.49511C32.5155 4.01258 32.3588 4.65892 32.4576 5.29193Z" stroke="white" stroke-width="4.44912" stroke-linecap="round" stroke-linejoin="round"/>
<path fill-rule="evenodd" clip-rule="evenodd" d="M17.6893 36.7152L20.2878 37.1926C20.3903 37.2122 20.4826 37.2672 20.5485 37.3481C20.6144 37.429 20.6497 37.5304 20.6483 37.6348L20.6005 40.0604C20.5978 40.1639 20.5589 40.2632 20.4906 40.3411C20.4224 40.419 20.3291 40.4705 20.2268 40.4869L17.6083 40.8945C17.4471 41.4138 17.2288 41.9136 16.9574 42.3848L18.4583 44.5581C18.5176 44.6445 18.5444 44.7491 18.534 44.8533C18.5236 44.9576 18.4766 45.0548 18.4014 45.1278L16.6521 46.8083C16.5773 46.8798 16.4799 46.9228 16.3766 46.9301C16.2734 46.9373 16.1709 46.9082 16.0869 46.8479L13.9523 45.2863C13.4686 45.5431 12.9602 45.7445 12.4272 45.8905L11.9158 48.4783C11.8951 48.5798 11.8396 48.6709 11.7589 48.7358C11.6781 48.8007 11.5773 48.8353 11.4737 48.8336L9.04803 48.7859C8.94393 48.7833 8.84405 48.7442 8.76587 48.6754C8.68769 48.6066 8.63618 48.5125 8.62035 48.4096L8.24013 45.8157C7.71607 45.6515 7.21132 45.431 6.73472 45.1582L4.55715 46.6197C4.47094 46.6773 4.36727 46.7029 4.26415 46.6921C4.16102 46.6813 4.06494 46.6347 3.99258 46.5604L2.3108 44.8098C2.23918 44.7341 2.19648 44.6356 2.19018 44.5316C2.18388 44.4275 2.21438 44.3246 2.27634 44.2408L3.83589 42.1481C3.57927 41.6585 3.37677 41.1424 3.23195 40.609L0.668207 40.1018C0.566912 40.0812 0.475983 40.0259 0.411106 39.9455C0.346229 39.865 0.311473 39.7644 0.312833 39.661L0.360581 37.2354C0.364825 37.0198 0.524405 36.839 0.736857 36.8077L3.31929 36.4298C3.48447 35.9003 3.70581 35.396 3.98331 34.9169L2.52426 32.7419C2.46714 32.6557 2.44193 32.5522 2.45299 32.4494C2.46404 32.3465 2.51067 32.2508 2.58481 32.1786L4.33287 30.4981C4.48802 30.3489 4.72934 30.3334 4.90185 30.4624L7.0021 32.0259C7.48885 31.7738 8.00142 31.5751 8.53086 31.4331L9.00392 28.8598C9.0233 28.7569 9.07844 28.6642 9.1596 28.598C9.24075 28.5318 9.34269 28.4965 9.44739 28.4982L11.873 28.5459C12.0886 28.5502 12.2681 28.7085 12.3008 28.9197L12.7049 31.5242C13.2293 31.6884 13.7294 31.9084 14.2052 32.1841L16.372 30.6907C16.4583 30.6314 16.5629 30.6046 16.6672 30.615C16.7715 30.6254 16.8687 30.6724 16.9416 30.7476L18.6222 32.4956C18.7714 32.6508 18.787 32.8895 18.6605 33.0621L17.0963 35.2004C17.3489 35.6832 17.5474 36.1881 17.6893 36.7152ZM7.39266 38.6055C7.38468 39.011 7.45663 39.414 7.60442 39.7917C7.75221 40.1693 7.97294 40.5142 8.254 40.8065C8.53506 41.0989 8.87095 41.333 9.24249 41.4955C9.61403 41.6581 10.014 41.7458 10.4194 41.7538C10.8249 41.7618 11.2279 41.6898 11.6056 41.542C11.9832 41.3943 12.3281 41.1735 12.6204 40.8925C12.9128 40.6114 13.1469 40.2755 13.3094 39.904C13.472 39.5324 13.5597 39.1325 13.5677 38.7271C13.5838 37.9082 13.274 37.1165 12.7064 36.526C12.1388 35.9356 11.3598 35.5949 10.541 35.5787C9.7221 35.5626 8.93037 35.8725 8.33995 36.4401C7.74953 37.0077 7.40878 37.7866 7.39266 38.6055Z" fill="white"/>
<path d="M53.9723 29.9782L56.5702 30.4556C56.6731 30.4746 56.7658 30.5296 56.8319 30.6107C56.898 30.6918 56.9331 30.7938 56.9309 30.8984L56.8831 33.3234C56.8811 33.4272 56.8424 33.5269 56.7741 33.605C56.7057 33.6831 56.612 33.7346 56.5094 33.7504L53.89 34.1575C53.7291 34.6793 53.5123 35.1761 53.2397 35.6479L54.7407 37.8207C54.8006 37.9069 54.8277 38.0117 54.8172 38.1162C54.8067 38.2206 54.7593 38.3179 54.6835 38.3905L52.9347 40.0718C52.86 40.1439 52.7623 40.1873 52.6587 40.1945C52.5551 40.2016 52.4523 40.1719 52.3684 40.1107L50.2343 38.5492C49.7499 38.8058 49.2386 39.0081 48.7097 39.1524L48.1987 41.7415C48.1786 41.8434 48.1231 41.9349 48.0421 41.9998C47.9612 42.0648 47.8598 42.0992 47.756 42.0968L45.3323 42.0491C45.2281 42.0471 45.128 42.0082 45.0498 41.9393C44.9716 41.8703 44.9204 41.7758 44.9054 41.6726L44.5249 39.0795C43.9999 38.9162 43.4946 38.6953 43.0184 38.4207L40.8409 39.8838C40.7547 39.9416 40.6509 39.9672 40.5476 39.956C40.4444 39.9449 40.3484 39.8976 40.2766 39.8226L38.594 38.0738C38.5226 37.9981 38.4799 37.8997 38.4733 37.7958C38.4667 37.6919 38.4966 37.589 38.5578 37.5048L40.1185 35.4113C39.86 34.9222 39.6569 34.4059 39.5129 33.8718L36.9507 33.3654C36.8491 33.3453 36.7578 33.29 36.6929 33.2093C36.6279 33.1286 36.5934 33.0276 36.5955 32.9241L36.6432 30.499C36.6475 30.2826 36.8066 30.1017 37.021 30.0708L39.6006 29.6926C39.767 29.1637 39.9889 28.6593 40.2663 28.1795L38.8072 26.0049C38.7497 25.9188 38.7243 25.8152 38.7355 25.7122C38.7467 25.6093 38.7937 25.5136 38.8684 25.4418L40.6184 23.762C40.6937 23.6896 40.7921 23.6462 40.8963 23.6396C41.0005 23.633 41.1037 23.6636 41.1874 23.7258L43.2877 25.2894C43.7735 25.0355 44.2829 24.8381 44.8161 24.697L45.2889 22.1221C45.308 22.0192 45.3629 21.9264 45.4441 21.8604C45.5252 21.7943 45.6271 21.7592 45.7317 21.7614L48.1568 21.8091C48.3718 21.8134 48.5514 21.9711 48.5851 22.1829L48.9884 24.7886C49.5129 24.9514 50.0137 25.171 50.4908 25.4474L52.6553 23.9543C52.7414 23.8943 52.8461 23.8669 52.9506 23.8772C53.055 23.8874 53.1524 23.9346 53.2252 24.0102L54.9064 25.7589C54.9784 25.8338 55.0215 25.9316 55.0284 26.0352C55.0353 26.1388 55.0054 26.2415 54.944 26.3252L53.3797 28.4633C53.6318 28.9464 53.8294 29.4509 53.9723 29.9769L53.9723 29.9782ZM43.6737 31.8687C43.6576 32.6876 43.9674 33.4794 44.5351 34.0699C45.1028 34.6603 45.8817 35.0011 46.7007 35.0172C47.5196 35.0333 48.3114 34.7235 48.9019 34.1558C49.4923 33.5881 49.8331 32.8092 49.8492 31.9902C49.8654 31.1713 49.5555 30.3795 48.9878 29.789C48.4202 29.1986 47.6412 28.8578 46.8222 28.8416C46.0033 28.8255 45.2115 29.1354 44.621 29.7031C44.0306 30.2707 43.6898 31.0497 43.6737 31.8687Z" stroke="white" stroke-width="1.24297"/>
</svg>
